<svg id="Layer_1" data-name="Layer 1" xmlns="http://www.w3.org/2000/svg" xmlns:xlink="http://www.w3.org/1999/xlink" viewBox="0 0 23.98 33"><defs><style>.cls-1{fill:url(#linear-gradient);}.cls-2{fill:#ffd629;}</style><linearGradient id="linear-gradient" x1="6.6" y1="1.04" x2="6.6" y2="32.01" gradientUnits="userSpaceOnUse"><stop offset="0" stop-color="#00f3be"/><stop offset="1" stop-color="#3dffb2" stop-opacity="0"/></linearGradient></defs><title>logo</title><polygon class="cls-1" points="1.8 27.04 1.8 4.41 5.99 1.04 9.97 2.76 11.4 5.45 11.4 12.56 11.4 32.01 7.34 32.01 3.38 28.71 1.8 27.04"/><path class="cls-2" d="M26.23,29a.94.94,0,0,0-.69-.28h-1V25.23a.5.5,0,0,0,0-.12V11.69a5.65,5.65,0,0,0-.46-2.24,5.8,5.8,0,0,0-3.08-3.08,5.49,5.49,0,0,0-2.25-.46,5.56,5.56,0,0,0-2.76.71A6.1,6.1,0,0,0,14,8.49a5.78,5.78,0,0,0-2.06-1.9,5.66,5.66,0,0,0-2.78-.71,5.57,5.57,0,0,0-2.26.46A5.67,5.67,0,0,0,5,7.58a5.85,5.85,0,0,0-1.7,4.11V25h0a10,10,0,0,0,0,7.81,10,10,0,0,0,5.31,5.3,9.61,9.61,0,0,0,3.9.79,9.81,9.81,0,0,0,3.72-.71,10.12,10.12,0,0,0,3.08-1.94,10.23,10.23,0,0,0,2.18-2.93,9.64,9.64,0,0,0,.88-2.62h3.15A1,1,0,0,0,26.23,29Zm-21-17.33a3.85,3.85,0,0,1,.3-1.52A3.91,3.91,0,0,1,6.4,8.93a4,4,0,0,1,1.23-.84A3.91,3.91,0,0,1,9.14,7.8a4,4,0,0,1,1.49.29,3.89,3.89,0,0,1,1.24.84,3.75,3.75,0,0,1,.83,1.24,3.85,3.85,0,0,1,.3,1.52v7.06h-.47a9.62,9.62,0,0,0-3.9.8,10.08,10.08,0,0,0-3.17,2.2L5.27,22Zm16.31,17h-2a1,1,0,1,0,0,1.94h.82a8.09,8.09,0,0,1-2.8,4.48,8.11,8.11,0,0,1-2.32,1.3,7.76,7.76,0,0,1-2.73.47A8,8,0,0,1,5.11,32a7.9,7.9,0,0,1-.63-3.14,8.07,8.07,0,0,1,.63-3.16,8.56,8.56,0,0,1,1.71-2.61,8.37,8.37,0,0,1,2.56-1.77,7.89,7.89,0,0,1,6.32,0,8.47,8.47,0,0,1,2.58,1.79,1.13,1.13,0,0,0,.78.36,1,1,0,0,0,.76-.3,1.09,1.09,0,0,0,.23-.72.91.91,0,0,0-.36-.69,10.33,10.33,0,0,0-3.22-2.23A9.09,9.09,0,0,0,15,19V11.69a4.14,4.14,0,0,1,.35-1.55,3.87,3.87,0,0,1,.83-1.23,3.92,3.92,0,0,1,1.21-.82,3.82,3.82,0,0,1,1.47-.29,3.63,3.63,0,0,1,2.58,1,4.24,4.24,0,0,1,1.25,2.77V28.74Z" transform="translate(-2.53 -5.88)"/></svg>